<?xml version="1.0" encoding="iso-8859-1"?>
<!-- Generator: Adobe Illustrator 19.0.0, SVG Export Plug-In . SVG Version: 6.00 Build 0)  -->
<svg version="1.1" id="Capa_1" xmlns="http://www.w3.org/2000/svg" xmlns:xlink="http://www.w3.org/1999/xlink" x="0px" y="0px"
	 viewBox="0 0 512 512" style="enable-background:new 0 0 512 512;" xml:space="preserve">
<rect x="33.03" y="177.55" style="fill:#FFEDB1;" width="445.94" height="280.77"/>
<path style="fill:#FFE17D;" d="M33.032,235.337c9.54,3.991,19.997,6.212,30.968,6.212c25.274,0,48.94-12.038,64-31.68
	c15.061,19.64,38.728,31.68,64,31.68c25.274,0,48.94-12.038,64-31.68c15.061,19.64,38.728,31.68,64,31.68
	c25.274,0,48.94-12.038,64-31.68c15.061,19.64,38.728,31.68,64,31.68c10.971,0,21.428-2.221,30.968-6.212v-57.788H33.032V235.337z"
	/>
<path style="fill:#DC4655;" d="M512,161.032c0,35.346-28.654,64-64,64c-25.589,0-47.67-15.017-57.911-36.719
	c-2.496-5.29-9.682-5.29-12.178,0c-10.241,21.702-32.322,36.719-57.911,36.719s-47.67-15.017-57.911-36.719
	c-2.496-5.29-9.682-5.29-12.178,0c-10.241,21.702-32.322,36.719-57.911,36.719s-47.67-15.017-57.911-36.719
	c-2.496-5.29-9.682-5.29-12.178,0C111.67,210.015,89.589,225.032,64,225.032c-35.346,0-64-28.654-64-64L61.309,53.741
	c2.941-5.146,8.413-8.322,14.34-8.322h360.702c5.927,0,11.399,3.176,14.34,8.322L512,161.032z"/>
<path style="fill:#E6646E;" d="M436.351,45.419H75.649c-5.927,0-11.399,3.176-14.34,8.322L0,161.032h512L450.691,53.741
	C447.75,48.595,442.278,45.419,436.351,45.419z"/>
<path style="fill:#FFFFFF;" d="M338.581,268.387v189.935h99.097V268.387c0-4.561-3.697-8.258-8.258-8.258h-82.581
	C342.278,260.129,338.581,263.826,338.581,268.387z"/>
<path style="fill:#DBD9DC;" d="M495.484,466.581H16.516c-4.565,0-8.258-3.694-8.258-8.258s3.694-8.258,8.258-8.258h478.968
	c4.565,0,8.258,3.694,8.258,8.258S500.048,466.581,495.484,466.581z"/>
<path style="fill:#FFFFFF;" d="M289.032,417.032H82.581c-4.561,0-8.258-3.697-8.258-8.258V268.387c0-4.561,3.697-8.258,8.258-8.258
	h206.452c4.561,0,8.258,3.697,8.258,8.258v140.387C297.29,413.335,293.593,417.032,289.032,417.032z"/>
<g>
	<path style="fill:#FFF6D8;" d="M181.677,400.516h94.968c2.28,0,4.129-1.849,4.129-4.129v-94.968L181.677,400.516z"/>
	<polygon style="fill:#FFF6D8;" points="132.129,400.516 255.999,276.645 228.735,276.645 104.864,400.516 	"/>
	<path style="fill:#FFF6D8;" d="M199.61,276.645H94.968c-2.28,0-4.129,1.849-4.129,4.129v104.643L199.61,276.645z"/>
	<path style="fill:#FFF6D8;" d="M421.161,291.157v-10.383c0-2.281-1.849-4.129-4.129-4.129h-57.806c-2.28,0-4.129,1.848-4.129,4.129
		v76.448L421.161,291.157z"/>
	<path style="fill:#FFF6D8;" d="M355.097,392.258v12.387c0,2.28,1.849,4.129,4.129,4.129h57.806c2.28,0,4.129-1.849,4.129-4.129
		v-78.452L355.097,392.258z"/>
</g>
<g>
</g>
<g>
</g>
<g>
</g>
<g>
</g>
<g>
</g>
<g>
</g>
<g>
</g>
<g>
</g>
<g>
</g>
<g>
</g>
<g>
</g>
<g>
</g>
<g>
</g>
<g>
</g>
<g>
</g>
</svg>
