<svg id="Flat" height="512" viewBox="0 0 512 512" width="512" xmlns="http://www.w3.org/2000/svg"><rect fill="#f7cc38" height="336" rx="32" width="416" x="72" y="152"/><path d="m440 104v304a32 32 0 0 1 -32 32h-256a32 32 0 0 1 -32-32v-352a32 32 0 0 1 32-32h208z" fill="#e9eef2"/><path d="m424 488h-368a32 32 0 0 1 -32-32v-320a32 32 0 0 1 32-32h96a32 32 0 0 1 32 32v64h176a32 32 0 0 1 32 32v224a32 32 0 0 0 32 32" fill="#fbe36a"/><g fill="#c3c6c7"><path d="m392 160h-112a8 8 0 0 1 0-16h112a8 8 0 0 1 0 16z"/><path d="m280 112h-56a8 8 0 0 1 0-16h56a8 8 0 0 1 0 16z"/><path d="m440 104h-48a32 32 0 0 1 -32-32v-48z"/><path d="m248 160h-16a8 8 0 0 1 0-16h16a8 8 0 0 1 0 16z"/></g><path d="m184 264-56 64h32v96h48v-96h32z" fill="#f79539"/></svg>